<mxfile host="Electron" modified="2023-05-19T19:04:03.554Z" agent="Mozilla/5.0 (Windows NT 10.0; Win64; x64) AppleWebKit/537.36 (KHTML, like Gecko) draw.io/21.2.8 Chrome/112.0.5615.165 Electron/24.2.0 Safari/537.36" etag="gVHxLbmAvy30-h94doGy" version="21.2.8" type="device" pages="3">
  <diagram name="Admin" id="fjwuFHZYpNOX4wre5BCR">
    <mxGraphModel dx="1276" dy="614" grid="1" gridSize="10" guides="1" tooltips="1" connect="1" arrows="1" fold="1" page="1" pageScale="1" pageWidth="850" pageHeight="1100" math="0" shadow="0">
      <root>
        <mxCell id="0" />
        <mxCell id="1" parent="0" />
        <mxCell id="p8_eBhFcITzLxwone0SJ-21" value="" style="group" parent="1" vertex="1" connectable="0">
          <mxGeometry x="1070" y="655" width="602.5" height="445" as="geometry" />
        </mxCell>
        <mxCell id="p8_eBhFcITzLxwone0SJ-1" value="Admin" style="shape=umlActor;verticalLabelPosition=bottom;verticalAlign=top;html=1;outlineConnect=0;" parent="p8_eBhFcITzLxwone0SJ-21" vertex="1">
          <mxGeometry y="182" width="30" height="70" as="geometry" />
        </mxCell>
        <mxCell id="p8_eBhFcITzLxwone0SJ-2" value="" style="whiteSpace=wrap;html=1;aspect=fixed;fillColor=#dae8fc;strokeColor=#6c8ebf;" parent="p8_eBhFcITzLxwone0SJ-21" vertex="1">
          <mxGeometry x="157.5" width="445" height="445" as="geometry" />
        </mxCell>
        <mxCell id="p8_eBhFcITzLxwone0SJ-3" value="Create user account" style="ellipse;whiteSpace=wrap;html=1;fillColor=#fff2cc;strokeColor=#d6b656;" parent="p8_eBhFcITzLxwone0SJ-21" vertex="1">
          <mxGeometry x="322.5" y="92" width="115" height="80" as="geometry" />
        </mxCell>
        <mxCell id="p8_eBhFcITzLxwone0SJ-4" value="Delete User Account" style="ellipse;whiteSpace=wrap;html=1;fillColor=#fff2cc;strokeColor=#d6b656;" parent="p8_eBhFcITzLxwone0SJ-21" vertex="1">
          <mxGeometry x="322.5" y="262" width="115" height="80" as="geometry" />
        </mxCell>
        <mxCell id="p8_eBhFcITzLxwone0SJ-5" value="" style="endArrow=none;html=1;rounded=0;entryX=0.5;entryY=0.5;entryDx=0;entryDy=0;entryPerimeter=0;exitX=0;exitY=0.5;exitDx=0;exitDy=0;" parent="p8_eBhFcITzLxwone0SJ-21" source="p8_eBhFcITzLxwone0SJ-3" target="p8_eBhFcITzLxwone0SJ-1" edge="1">
          <mxGeometry width="50" height="50" relative="1" as="geometry">
            <mxPoint x="280" y="232" as="sourcePoint" />
            <mxPoint x="330" y="182" as="targetPoint" />
          </mxGeometry>
        </mxCell>
        <mxCell id="p8_eBhFcITzLxwone0SJ-6" value="" style="endArrow=none;html=1;rounded=0;entryX=0.5;entryY=0.5;entryDx=0;entryDy=0;entryPerimeter=0;exitX=0;exitY=0.5;exitDx=0;exitDy=0;" parent="p8_eBhFcITzLxwone0SJ-21" source="p8_eBhFcITzLxwone0SJ-4" target="p8_eBhFcITzLxwone0SJ-1" edge="1">
          <mxGeometry width="50" height="50" relative="1" as="geometry">
            <mxPoint x="332.5" y="142" as="sourcePoint" />
            <mxPoint x="25" y="227" as="targetPoint" />
          </mxGeometry>
        </mxCell>
        <mxCell id="p8_eBhFcITzLxwone0SJ-7" value="Edit user account" style="ellipse;whiteSpace=wrap;html=1;fillColor=#fff2cc;strokeColor=#d6b656;" parent="p8_eBhFcITzLxwone0SJ-21" vertex="1">
          <mxGeometry x="322.5" y="177" width="115" height="80" as="geometry" />
        </mxCell>
        <mxCell id="p8_eBhFcITzLxwone0SJ-8" value="" style="endArrow=none;html=1;rounded=0;entryX=0.5;entryY=0.5;entryDx=0;entryDy=0;entryPerimeter=0;exitX=0;exitY=0.5;exitDx=0;exitDy=0;" parent="p8_eBhFcITzLxwone0SJ-21" source="p8_eBhFcITzLxwone0SJ-7" target="p8_eBhFcITzLxwone0SJ-1" edge="1">
          <mxGeometry width="50" height="50" relative="1" as="geometry">
            <mxPoint x="332.5" y="312" as="sourcePoint" />
            <mxPoint x="25" y="227" as="targetPoint" />
          </mxGeometry>
        </mxCell>
        <mxCell id="EP5gCfYuIHyOZDNgvc9u-5" value="" style="group" parent="1" vertex="1" connectable="0">
          <mxGeometry x="240" y="1120" width="602.5" height="445" as="geometry" />
        </mxCell>
        <mxCell id="p8_eBhFcITzLxwone0SJ-9" value="Admin" style="shape=umlActor;verticalLabelPosition=bottom;verticalAlign=top;html=1;outlineConnect=0;container=0;" parent="EP5gCfYuIHyOZDNgvc9u-5" vertex="1">
          <mxGeometry y="182" width="30" height="70" as="geometry" />
        </mxCell>
        <mxCell id="p8_eBhFcITzLxwone0SJ-10" value="" style="whiteSpace=wrap;html=1;aspect=fixed;fillColor=#dae8fc;strokeColor=#6c8ebf;container=0;" parent="EP5gCfYuIHyOZDNgvc9u-5" vertex="1">
          <mxGeometry x="157.5" width="445" height="445" as="geometry" />
        </mxCell>
        <mxCell id="p8_eBhFcITzLxwone0SJ-11" value="manage user accounts status" style="ellipse;whiteSpace=wrap;html=1;fillColor=#fff2cc;strokeColor=#d6b656;container=0;" parent="EP5gCfYuIHyOZDNgvc9u-5" vertex="1">
          <mxGeometry x="322.5" y="70" width="115" height="80" as="geometry" />
        </mxCell>
        <mxCell id="p8_eBhFcITzLxwone0SJ-12" value="monitor subscription plam" style="ellipse;whiteSpace=wrap;html=1;fillColor=#fff2cc;strokeColor=#d6b656;container=0;" parent="EP5gCfYuIHyOZDNgvc9u-5" vertex="1">
          <mxGeometry x="336" y="290" width="115" height="78" as="geometry" />
        </mxCell>
        <mxCell id="p8_eBhFcITzLxwone0SJ-13" value="" style="endArrow=none;html=1;rounded=0;entryX=0.5;entryY=0.5;entryDx=0;entryDy=0;entryPerimeter=0;exitX=0;exitY=0.5;exitDx=0;exitDy=0;" parent="EP5gCfYuIHyOZDNgvc9u-5" source="p8_eBhFcITzLxwone0SJ-11" target="p8_eBhFcITzLxwone0SJ-9" edge="1">
          <mxGeometry width="50" height="50" relative="1" as="geometry">
            <mxPoint x="280" y="232" as="sourcePoint" />
            <mxPoint x="330" y="182" as="targetPoint" />
          </mxGeometry>
        </mxCell>
        <mxCell id="p8_eBhFcITzLxwone0SJ-14" value="" style="endArrow=none;html=1;rounded=0;entryX=0.5;entryY=0.5;entryDx=0;entryDy=0;entryPerimeter=0;exitX=0;exitY=0.5;exitDx=0;exitDy=0;" parent="EP5gCfYuIHyOZDNgvc9u-5" source="p8_eBhFcITzLxwone0SJ-12" target="p8_eBhFcITzLxwone0SJ-9" edge="1">
          <mxGeometry width="50" height="50" relative="1" as="geometry">
            <mxPoint x="332.5" y="142" as="sourcePoint" />
            <mxPoint x="25" y="227" as="targetPoint" />
          </mxGeometry>
        </mxCell>
        <mxCell id="Jd3R5-ZXTsf17rILLIj6-1" value="Admin" style="shape=umlActor;verticalLabelPosition=bottom;verticalAlign=top;html=1;outlineConnect=0;container=0;" parent="1" vertex="1">
          <mxGeometry x="240" y="590" width="30" height="70" as="geometry" />
        </mxCell>
        <mxCell id="Jd3R5-ZXTsf17rILLIj6-3" value="" style="whiteSpace=wrap;html=1;aspect=fixed;fillColor=#dae8fc;strokeColor=#6c8ebf;container=0;" parent="1" vertex="1">
          <mxGeometry x="405" y="440" width="445" height="445" as="geometry" />
        </mxCell>
        <mxCell id="Jd3R5-ZXTsf17rILLIj6-2" value="Login" style="ellipse;whiteSpace=wrap;html=1;fillColor=#fff2cc;strokeColor=#d6b656;container=0;" parent="1" vertex="1">
          <mxGeometry x="562.5" y="500" width="115" height="80" as="geometry" />
        </mxCell>
        <mxCell id="EdmM1rZS4--3qe9CLnAn-1" value="Logout" style="ellipse;whiteSpace=wrap;html=1;fillColor=#fff2cc;strokeColor=#d6b656;container=0;" parent="1" vertex="1">
          <mxGeometry x="562.5" y="690" width="115" height="80" as="geometry" />
        </mxCell>
        <mxCell id="EdmM1rZS4--3qe9CLnAn-2" value="" style="endArrow=none;html=1;rounded=0;exitX=0;exitY=0.5;exitDx=0;exitDy=0;" parent="1" source="Jd3R5-ZXTsf17rILLIj6-2" edge="1">
          <mxGeometry width="50" height="50" relative="1" as="geometry">
            <mxPoint x="520" y="640" as="sourcePoint" />
            <mxPoint x="255" y="625" as="targetPoint" />
          </mxGeometry>
        </mxCell>
        <mxCell id="EdmM1rZS4--3qe9CLnAn-3" value="" style="endArrow=none;html=1;rounded=0;entryX=0.5;entryY=0.5;entryDx=0;entryDy=0;entryPerimeter=0;exitX=0;exitY=0.5;exitDx=0;exitDy=0;" parent="1" source="EdmM1rZS4--3qe9CLnAn-1" target="Jd3R5-ZXTsf17rILLIj6-1" edge="1">
          <mxGeometry width="50" height="50" relative="1" as="geometry">
            <mxPoint x="572.5" y="550" as="sourcePoint" />
            <mxPoint x="265" y="635" as="targetPoint" />
          </mxGeometry>
        </mxCell>
        <mxCell id="Z9ICKQeuR0inZuocaUJ0-1" value="2FA secure login" style="ellipse;whiteSpace=wrap;html=1;fillColor=#fff2cc;strokeColor=#d6b656;container=0;" parent="1" vertex="1">
          <mxGeometry x="562.5" y="600" width="115" height="80" as="geometry" />
        </mxCell>
        <mxCell id="Z9ICKQeuR0inZuocaUJ0-2" value="" style="endArrow=none;html=1;rounded=0;exitX=0;exitY=0.5;exitDx=0;exitDy=0;entryX=0.5;entryY=0.5;entryDx=0;entryDy=0;entryPerimeter=0;" parent="1" source="Z9ICKQeuR0inZuocaUJ0-1" target="Jd3R5-ZXTsf17rILLIj6-1" edge="1">
          <mxGeometry width="50" height="50" relative="1" as="geometry">
            <mxPoint x="611.5" y="515" as="sourcePoint" />
            <mxPoint x="270" y="625" as="targetPoint" />
          </mxGeometry>
        </mxCell>
      </root>
    </mxGraphModel>
  </diagram>
  <diagram id="VBOf3AZ2FImRk6WUhRUO" name="Organization">
    <mxGraphModel dx="1276" dy="614" grid="1" gridSize="10" guides="1" tooltips="1" connect="1" arrows="1" fold="1" page="1" pageScale="1" pageWidth="850" pageHeight="1100" math="0" shadow="0">
      <root>
        <mxCell id="0" />
        <mxCell id="1" parent="0" />
        <mxCell id="Gf9_6HgdlqJrg9Pkm4ha-1" value="" style="group" parent="1" vertex="1" connectable="0">
          <mxGeometry x="73.75" y="372.5" width="610" height="445" as="geometry" />
        </mxCell>
        <mxCell id="Gf9_6HgdlqJrg9Pkm4ha-2" value="Organization" style="shape=umlActor;verticalLabelPosition=bottom;verticalAlign=top;html=1;outlineConnect=0;" parent="Gf9_6HgdlqJrg9Pkm4ha-1" vertex="1">
          <mxGeometry y="150" width="30" height="70" as="geometry" />
        </mxCell>
        <mxCell id="Gf9_6HgdlqJrg9Pkm4ha-3" value="" style="whiteSpace=wrap;html=1;aspect=fixed;fillColor=#dae8fc;strokeColor=#6c8ebf;" parent="Gf9_6HgdlqJrg9Pkm4ha-1" vertex="1">
          <mxGeometry x="165" width="445" height="445" as="geometry" />
        </mxCell>
        <mxCell id="Gf9_6HgdlqJrg9Pkm4ha-4" value="Login" style="ellipse;whiteSpace=wrap;html=1;fillColor=#fff2cc;strokeColor=#d6b656;" parent="Gf9_6HgdlqJrg9Pkm4ha-1" vertex="1">
          <mxGeometry x="322.5" y="60" width="115" height="80" as="geometry" />
        </mxCell>
        <mxCell id="Gf9_6HgdlqJrg9Pkm4ha-5" value="Logout" style="ellipse;whiteSpace=wrap;html=1;fillColor=#fff2cc;strokeColor=#d6b656;" parent="Gf9_6HgdlqJrg9Pkm4ha-1" vertex="1">
          <mxGeometry x="322.5" y="230" width="115" height="80" as="geometry" />
        </mxCell>
        <mxCell id="Gf9_6HgdlqJrg9Pkm4ha-6" value="" style="endArrow=none;html=1;rounded=0;entryX=0.5;entryY=0.5;entryDx=0;entryDy=0;entryPerimeter=0;exitX=0;exitY=0.5;exitDx=0;exitDy=0;" parent="Gf9_6HgdlqJrg9Pkm4ha-1" source="Gf9_6HgdlqJrg9Pkm4ha-4" target="Gf9_6HgdlqJrg9Pkm4ha-2" edge="1">
          <mxGeometry width="50" height="50" relative="1" as="geometry">
            <mxPoint x="280" y="200" as="sourcePoint" />
            <mxPoint x="330" y="150" as="targetPoint" />
          </mxGeometry>
        </mxCell>
        <mxCell id="Gf9_6HgdlqJrg9Pkm4ha-7" value="" style="endArrow=none;html=1;rounded=0;entryX=0.5;entryY=0.5;entryDx=0;entryDy=0;entryPerimeter=0;exitX=0;exitY=0.5;exitDx=0;exitDy=0;" parent="Gf9_6HgdlqJrg9Pkm4ha-1" source="Gf9_6HgdlqJrg9Pkm4ha-5" target="Gf9_6HgdlqJrg9Pkm4ha-2" edge="1">
          <mxGeometry width="50" height="50" relative="1" as="geometry">
            <mxPoint x="332.5" y="110" as="sourcePoint" />
            <mxPoint x="25" y="195" as="targetPoint" />
          </mxGeometry>
        </mxCell>
        <mxCell id="Gf9_6HgdlqJrg9Pkm4ha-8" value="2FA secure login" style="ellipse;whiteSpace=wrap;html=1;fillColor=#fff2cc;strokeColor=#d6b656;container=0;" parent="Gf9_6HgdlqJrg9Pkm4ha-1" vertex="1">
          <mxGeometry x="330" y="145" width="115" height="80" as="geometry" />
        </mxCell>
        <mxCell id="Gf9_6HgdlqJrg9Pkm4ha-9" value="" style="endArrow=none;html=1;rounded=0;entryX=0.5;entryY=0.5;entryDx=0;entryDy=0;entryPerimeter=0;exitX=0;exitY=0.5;exitDx=0;exitDy=0;" parent="Gf9_6HgdlqJrg9Pkm4ha-1" source="Gf9_6HgdlqJrg9Pkm4ha-8" target="Gf9_6HgdlqJrg9Pkm4ha-2" edge="1">
          <mxGeometry width="50" height="50" relative="1" as="geometry">
            <mxPoint x="342.5" y="75" as="sourcePoint" />
            <mxPoint x="-90" y="127" as="targetPoint" />
          </mxGeometry>
        </mxCell>
        <mxCell id="9rzXsSrbRh8PBHOy17Re-18" value="" style="group" parent="1" vertex="1" connectable="0">
          <mxGeometry x="1225" y="1100" width="602.5" height="445" as="geometry" />
        </mxCell>
        <mxCell id="9rzXsSrbRh8PBHOy17Re-19" value="Organization" style="shape=umlActor;verticalLabelPosition=bottom;verticalAlign=top;html=1;outlineConnect=0;" parent="9rzXsSrbRh8PBHOy17Re-18" vertex="1">
          <mxGeometry y="182" width="30" height="70" as="geometry" />
        </mxCell>
        <mxCell id="9rzXsSrbRh8PBHOy17Re-20" value="" style="whiteSpace=wrap;html=1;aspect=fixed;fillColor=#dae8fc;strokeColor=#6c8ebf;" parent="9rzXsSrbRh8PBHOy17Re-18" vertex="1">
          <mxGeometry x="157.5" width="445" height="445" as="geometry" />
        </mxCell>
        <mxCell id="9rzXsSrbRh8PBHOy17Re-21" value="add list of ecommerce site URLs to crawl" style="ellipse;whiteSpace=wrap;html=1;fillColor=#fff2cc;strokeColor=#d6b656;" parent="9rzXsSrbRh8PBHOy17Re-18" vertex="1">
          <mxGeometry x="310" y="20" width="140" height="80" as="geometry" />
        </mxCell>
        <mxCell id="9rzXsSrbRh8PBHOy17Re-22" value="generate product recommedation based from crawl" style="ellipse;whiteSpace=wrap;html=1;fillColor=#fff2cc;strokeColor=#d6b656;" parent="9rzXsSrbRh8PBHOy17Re-18" vertex="1">
          <mxGeometry x="340" y="300" width="115" height="80" as="geometry" />
        </mxCell>
        <mxCell id="9rzXsSrbRh8PBHOy17Re-23" value="" style="endArrow=none;html=1;rounded=0;entryX=0.5;entryY=0.5;entryDx=0;entryDy=0;entryPerimeter=0;exitX=0;exitY=0.5;exitDx=0;exitDy=0;" parent="9rzXsSrbRh8PBHOy17Re-18" source="9rzXsSrbRh8PBHOy17Re-21" target="9rzXsSrbRh8PBHOy17Re-19" edge="1">
          <mxGeometry width="50" height="50" relative="1" as="geometry">
            <mxPoint x="280" y="232" as="sourcePoint" />
            <mxPoint x="330" y="182" as="targetPoint" />
          </mxGeometry>
        </mxCell>
        <mxCell id="9rzXsSrbRh8PBHOy17Re-24" value="" style="endArrow=none;html=1;rounded=0;entryX=0.5;entryY=0.5;entryDx=0;entryDy=0;entryPerimeter=0;exitX=0;exitY=0.5;exitDx=0;exitDy=0;" parent="9rzXsSrbRh8PBHOy17Re-18" source="9rzXsSrbRh8PBHOy17Re-22" target="9rzXsSrbRh8PBHOy17Re-19" edge="1">
          <mxGeometry width="50" height="50" relative="1" as="geometry">
            <mxPoint x="332.5" y="142" as="sourcePoint" />
            <mxPoint x="25" y="227" as="targetPoint" />
          </mxGeometry>
        </mxCell>
        <mxCell id="9rzXsSrbRh8PBHOy17Re-25" value="Crawl URL links uploaded" style="ellipse;whiteSpace=wrap;html=1;fillColor=#fff2cc;strokeColor=#d6b656;" parent="9rzXsSrbRh8PBHOy17Re-18" vertex="1">
          <mxGeometry x="323.75" y="110" width="115" height="80" as="geometry" />
        </mxCell>
        <mxCell id="9rzXsSrbRh8PBHOy17Re-26" value="" style="endArrow=none;html=1;rounded=0;entryX=0.5;entryY=0.5;entryDx=0;entryDy=0;entryPerimeter=0;exitX=0;exitY=0.5;exitDx=0;exitDy=0;" parent="9rzXsSrbRh8PBHOy17Re-18" source="9rzXsSrbRh8PBHOy17Re-25" target="9rzXsSrbRh8PBHOy17Re-19" edge="1">
          <mxGeometry width="50" height="50" relative="1" as="geometry">
            <mxPoint x="333.75" y="332" as="sourcePoint" />
            <mxPoint x="25" y="227" as="targetPoint" />
          </mxGeometry>
        </mxCell>
        <mxCell id="zzPA_jKO_lkGCX48FBQB-10" value="" style="group" parent="9rzXsSrbRh8PBHOy17Re-18" vertex="1" connectable="0">
          <mxGeometry x="-5" y="200" width="455" height="80" as="geometry" />
        </mxCell>
        <mxCell id="zzPA_jKO_lkGCX48FBQB-11" value="generate ratings prediction based from crawl" style="ellipse;whiteSpace=wrap;html=1;fillColor=#fff2cc;strokeColor=#d6b656;container=0;" parent="zzPA_jKO_lkGCX48FBQB-10" vertex="1">
          <mxGeometry x="340" width="115" height="80" as="geometry" />
        </mxCell>
        <mxCell id="zzPA_jKO_lkGCX48FBQB-12" value="" style="endArrow=none;html=1;rounded=0;exitX=0;exitY=0.5;exitDx=0;exitDy=0;entryX=0.5;entryY=0.5;entryDx=0;entryDy=0;entryPerimeter=0;" parent="9rzXsSrbRh8PBHOy17Re-18" source="zzPA_jKO_lkGCX48FBQB-11" target="9rzXsSrbRh8PBHOy17Re-19" edge="1">
          <mxGeometry width="50" height="50" relative="1" as="geometry">
            <mxPoint x="385" y="182" as="sourcePoint" />
            <mxPoint x="50" y="250" as="targetPoint" />
          </mxGeometry>
        </mxCell>
        <mxCell id="9rzXsSrbRh8PBHOy17Re-27" value="" style="group" parent="1" vertex="1" connectable="0">
          <mxGeometry x="100" y="1090" width="602.5" height="445" as="geometry" />
        </mxCell>
        <mxCell id="9rzXsSrbRh8PBHOy17Re-10" value="Organization" style="shape=umlActor;verticalLabelPosition=bottom;verticalAlign=top;html=1;outlineConnect=0;" parent="9rzXsSrbRh8PBHOy17Re-27" vertex="1">
          <mxGeometry y="182" width="30" height="70" as="geometry" />
        </mxCell>
        <mxCell id="9rzXsSrbRh8PBHOy17Re-11" value="" style="whiteSpace=wrap;html=1;aspect=fixed;fillColor=#dae8fc;strokeColor=#6c8ebf;" parent="9rzXsSrbRh8PBHOy17Re-27" vertex="1">
          <mxGeometry x="157.5" width="445" height="445" as="geometry" />
        </mxCell>
        <mxCell id="9rzXsSrbRh8PBHOy17Re-12" value="add my own customer dataset" style="ellipse;whiteSpace=wrap;html=1;fillColor=#fff2cc;strokeColor=#d6b656;" parent="9rzXsSrbRh8PBHOy17Re-27" vertex="1">
          <mxGeometry x="325" y="30" width="117.5" height="80" as="geometry" />
        </mxCell>
        <mxCell id="9rzXsSrbRh8PBHOy17Re-13" value="generate product recommendations from data set" style="ellipse;whiteSpace=wrap;html=1;fillColor=#fff2cc;strokeColor=#d6b656;" parent="9rzXsSrbRh8PBHOy17Re-27" vertex="1">
          <mxGeometry x="325.63" y="320" width="116.25" height="80" as="geometry" />
        </mxCell>
        <mxCell id="9rzXsSrbRh8PBHOy17Re-14" value="" style="endArrow=none;html=1;rounded=0;entryX=0.5;entryY=0.5;entryDx=0;entryDy=0;entryPerimeter=0;exitX=0;exitY=0.5;exitDx=0;exitDy=0;" parent="9rzXsSrbRh8PBHOy17Re-27" source="9rzXsSrbRh8PBHOy17Re-12" target="9rzXsSrbRh8PBHOy17Re-10" edge="1">
          <mxGeometry width="50" height="50" relative="1" as="geometry">
            <mxPoint x="280" y="232" as="sourcePoint" />
            <mxPoint x="330" y="182" as="targetPoint" />
          </mxGeometry>
        </mxCell>
        <mxCell id="9rzXsSrbRh8PBHOy17Re-15" value="" style="endArrow=none;html=1;rounded=0;entryX=0.5;entryY=0.5;entryDx=0;entryDy=0;entryPerimeter=0;exitX=0;exitY=0.5;exitDx=0;exitDy=0;" parent="9rzXsSrbRh8PBHOy17Re-27" source="9rzXsSrbRh8PBHOy17Re-13" target="9rzXsSrbRh8PBHOy17Re-10" edge="1">
          <mxGeometry width="50" height="50" relative="1" as="geometry">
            <mxPoint x="332.5" y="142" as="sourcePoint" />
            <mxPoint x="25" y="227" as="targetPoint" />
          </mxGeometry>
        </mxCell>
        <mxCell id="9rzXsSrbRh8PBHOy17Re-16" value="generate ratings prediction from data set" style="ellipse;whiteSpace=wrap;html=1;fillColor=#fff2cc;strokeColor=#d6b656;" parent="9rzXsSrbRh8PBHOy17Re-27" vertex="1">
          <mxGeometry x="330" y="220" width="115" height="80" as="geometry" />
        </mxCell>
        <mxCell id="9rzXsSrbRh8PBHOy17Re-17" value="" style="endArrow=none;html=1;rounded=0;entryX=0.5;entryY=0.5;entryDx=0;entryDy=0;entryPerimeter=0;exitX=0;exitY=0.5;exitDx=0;exitDy=0;" parent="9rzXsSrbRh8PBHOy17Re-27" source="9rzXsSrbRh8PBHOy17Re-16" target="9rzXsSrbRh8PBHOy17Re-10" edge="1">
          <mxGeometry width="50" height="50" relative="1" as="geometry">
            <mxPoint x="333.75" y="332" as="sourcePoint" />
            <mxPoint x="25" y="227" as="targetPoint" />
          </mxGeometry>
        </mxCell>
        <mxCell id="zzPA_jKO_lkGCX48FBQB-7" value="" style="group" parent="9rzXsSrbRh8PBHOy17Re-27" vertex="1" connectable="0">
          <mxGeometry x="-20" y="130" width="470" height="80" as="geometry" />
        </mxCell>
        <mxCell id="zzPA_jKO_lkGCX48FBQB-8" value="delete the uploaded data set " style="ellipse;whiteSpace=wrap;html=1;fillColor=#fff2cc;strokeColor=#d6b656;container=0;" parent="zzPA_jKO_lkGCX48FBQB-7" vertex="1">
          <mxGeometry x="340" width="130" height="80" as="geometry" />
        </mxCell>
        <mxCell id="zzPA_jKO_lkGCX48FBQB-9" value="" style="endArrow=none;html=1;rounded=0;exitX=0;exitY=0.5;exitDx=0;exitDy=0;entryX=0.5;entryY=0.5;entryDx=0;entryDy=0;entryPerimeter=0;" parent="9rzXsSrbRh8PBHOy17Re-27" source="zzPA_jKO_lkGCX48FBQB-8" target="9rzXsSrbRh8PBHOy17Re-10" edge="1">
          <mxGeometry width="50" height="50" relative="1" as="geometry">
            <mxPoint x="365" y="112" as="sourcePoint" />
            <mxPoint x="50" y="210" as="targetPoint" />
          </mxGeometry>
        </mxCell>
        <mxCell id="9rzXsSrbRh8PBHOy17Re-28" value="" style="group" parent="1" vertex="1" connectable="0">
          <mxGeometry x="160" y="1680" width="595" height="445" as="geometry" />
        </mxCell>
        <mxCell id="9rzXsSrbRh8PBHOy17Re-29" value="Organization&lt;br&gt;" style="shape=umlActor;verticalLabelPosition=bottom;verticalAlign=top;html=1;outlineConnect=0;" parent="9rzXsSrbRh8PBHOy17Re-28" vertex="1">
          <mxGeometry y="182" width="30" height="70" as="geometry" />
        </mxCell>
        <mxCell id="9rzXsSrbRh8PBHOy17Re-30" value="" style="whiteSpace=wrap;html=1;aspect=fixed;fillColor=#dae8fc;strokeColor=#6c8ebf;" parent="9rzXsSrbRh8PBHOy17Re-28" vertex="1">
          <mxGeometry x="150" width="445" height="445" as="geometry" />
        </mxCell>
        <mxCell id="9rzXsSrbRh8PBHOy17Re-31" value="generate recommendation from RECS data" style="ellipse;whiteSpace=wrap;html=1;fillColor=#fff2cc;strokeColor=#d6b656;" parent="9rzXsSrbRh8PBHOy17Re-28" vertex="1">
          <mxGeometry x="315" y="182.5" width="150" height="80" as="geometry" />
        </mxCell>
        <mxCell id="9rzXsSrbRh8PBHOy17Re-32" value="" style="endArrow=none;html=1;rounded=0;entryX=0.5;entryY=0.5;entryDx=0;entryDy=0;entryPerimeter=0;exitX=0;exitY=0.5;exitDx=0;exitDy=0;" parent="9rzXsSrbRh8PBHOy17Re-28" source="9rzXsSrbRh8PBHOy17Re-31" target="9rzXsSrbRh8PBHOy17Re-29" edge="1">
          <mxGeometry width="50" height="50" relative="1" as="geometry">
            <mxPoint x="280" y="232" as="sourcePoint" />
            <mxPoint x="330" y="182" as="targetPoint" />
          </mxGeometry>
        </mxCell>
        <mxCell id="9rzXsSrbRh8PBHOy17Re-33" value="generate ratings prediction from RECS data" style="ellipse;whiteSpace=wrap;html=1;fillColor=#fff2cc;strokeColor=#d6b656;" parent="9rzXsSrbRh8PBHOy17Re-28" vertex="1">
          <mxGeometry x="320" y="50" width="140" height="90" as="geometry" />
        </mxCell>
        <mxCell id="9rzXsSrbRh8PBHOy17Re-34" value="" style="endArrow=none;html=1;rounded=0;entryX=0.5;entryY=0.5;entryDx=0;entryDy=0;entryPerimeter=0;exitX=0;exitY=0.5;exitDx=0;exitDy=0;" parent="9rzXsSrbRh8PBHOy17Re-28" source="9rzXsSrbRh8PBHOy17Re-33" target="9rzXsSrbRh8PBHOy17Re-29" edge="1">
          <mxGeometry width="50" height="50" relative="1" as="geometry">
            <mxPoint x="333.75" y="332" as="sourcePoint" />
            <mxPoint x="25" y="227" as="targetPoint" />
          </mxGeometry>
        </mxCell>
        <mxCell id="9rzXsSrbRh8PBHOy17Re-35" value="view result history" style="ellipse;whiteSpace=wrap;html=1;fillColor=#fff2cc;strokeColor=#d6b656;" parent="9rzXsSrbRh8PBHOy17Re-28" vertex="1">
          <mxGeometry x="315" y="292" width="150" height="80" as="geometry" />
        </mxCell>
        <mxCell id="9rzXsSrbRh8PBHOy17Re-36" value="" style="endArrow=none;html=1;rounded=0;entryX=0.5;entryY=0.5;entryDx=0;entryDy=0;entryPerimeter=0;exitX=0;exitY=0.5;exitDx=0;exitDy=0;" parent="9rzXsSrbRh8PBHOy17Re-28" source="9rzXsSrbRh8PBHOy17Re-35" target="9rzXsSrbRh8PBHOy17Re-29" edge="1">
          <mxGeometry width="50" height="50" relative="1" as="geometry">
            <mxPoint x="275" y="322" as="sourcePoint" />
            <mxPoint x="10" y="307" as="targetPoint" />
          </mxGeometry>
        </mxCell>
        <mxCell id="J5fX9e8gvh-bbp4VQ0i_-2" value="Organization" style="shape=umlActor;verticalLabelPosition=bottom;verticalAlign=top;html=1;outlineConnect=0;container=0;" parent="1" vertex="1">
          <mxGeometry x="1150" y="532" width="30" height="70" as="geometry" />
        </mxCell>
        <mxCell id="J5fX9e8gvh-bbp4VQ0i_-3" value="" style="whiteSpace=wrap;html=1;aspect=fixed;fillColor=#dae8fc;strokeColor=#6c8ebf;container=0;" parent="1" vertex="1">
          <mxGeometry x="1307.5" y="350" width="510" height="510" as="geometry" />
        </mxCell>
        <mxCell id="J5fX9e8gvh-bbp4VQ0i_-4" value="create user account&amp;nbsp;" style="ellipse;whiteSpace=wrap;html=1;fillColor=#fff2cc;strokeColor=#d6b656;container=0;" parent="1" vertex="1">
          <mxGeometry x="1503.75" y="390" width="117.5" height="80" as="geometry" />
        </mxCell>
        <mxCell id="J5fX9e8gvh-bbp4VQ0i_-5" value="edit categories of products they are selling&amp;nbsp;" style="ellipse;whiteSpace=wrap;html=1;fillColor=#fff2cc;strokeColor=#d6b656;container=0;" parent="1" vertex="1">
          <mxGeometry x="1503.75" y="602" width="146.25" height="80" as="geometry" />
        </mxCell>
        <mxCell id="J5fX9e8gvh-bbp4VQ0i_-6" value="" style="endArrow=none;html=1;rounded=0;entryX=0.5;entryY=0.5;entryDx=0;entryDy=0;entryPerimeter=0;exitX=0;exitY=0.5;exitDx=0;exitDy=0;" parent="1" source="J5fX9e8gvh-bbp4VQ0i_-4" target="J5fX9e8gvh-bbp4VQ0i_-2" edge="1">
          <mxGeometry width="50" height="50" relative="1" as="geometry">
            <mxPoint x="1430" y="582" as="sourcePoint" />
            <mxPoint x="1480" y="532" as="targetPoint" />
          </mxGeometry>
        </mxCell>
        <mxCell id="J5fX9e8gvh-bbp4VQ0i_-7" value="" style="endArrow=none;html=1;rounded=0;entryX=0.5;entryY=0.5;entryDx=0;entryDy=0;entryPerimeter=0;exitX=0;exitY=0.5;exitDx=0;exitDy=0;" parent="1" source="J5fX9e8gvh-bbp4VQ0i_-5" target="J5fX9e8gvh-bbp4VQ0i_-2" edge="1">
          <mxGeometry width="50" height="50" relative="1" as="geometry">
            <mxPoint x="1482.5" y="492" as="sourcePoint" />
            <mxPoint x="1175" y="577" as="targetPoint" />
          </mxGeometry>
        </mxCell>
        <mxCell id="J5fX9e8gvh-bbp4VQ0i_-10" value="Select product categories they are selling" style="ellipse;whiteSpace=wrap;html=1;fillColor=#fff2cc;strokeColor=#d6b656;container=0;" parent="1" vertex="1">
          <mxGeometry x="1506.25" y="500" width="133.75" height="80" as="geometry" />
        </mxCell>
        <mxCell id="J5fX9e8gvh-bbp4VQ0i_-11" value="" style="endArrow=none;html=1;rounded=0;exitX=0;exitY=0.5;exitDx=0;exitDy=0;" parent="1" source="J5fX9e8gvh-bbp4VQ0i_-10" edge="1">
          <mxGeometry width="50" height="50" relative="1" as="geometry">
            <mxPoint x="1483.75" y="599.13" as="sourcePoint" />
            <mxPoint x="1170" y="570" as="targetPoint" />
          </mxGeometry>
        </mxCell>
        <mxCell id="zzPA_jKO_lkGCX48FBQB-4" value="" style="group" parent="1" vertex="1" connectable="0">
          <mxGeometry x="1275" y="710" width="455" height="80" as="geometry" />
        </mxCell>
        <mxCell id="zzPA_jKO_lkGCX48FBQB-5" value="edit account information&amp;nbsp;" style="ellipse;whiteSpace=wrap;html=1;fillColor=#fff2cc;strokeColor=#d6b656;container=0;" parent="zzPA_jKO_lkGCX48FBQB-4" vertex="1">
          <mxGeometry x="240" y="-10" width="115" height="80" as="geometry" />
        </mxCell>
        <mxCell id="zzPA_jKO_lkGCX48FBQB-6" value="" style="endArrow=none;html=1;rounded=0;exitX=0;exitY=0.5;exitDx=0;exitDy=0;" parent="1" source="zzPA_jKO_lkGCX48FBQB-5" edge="1">
          <mxGeometry width="50" height="50" relative="1" as="geometry">
            <mxPoint x="1595" y="692" as="sourcePoint" />
            <mxPoint x="1165" y="567" as="targetPoint" />
          </mxGeometry>
        </mxCell>
        <mxCell id="2Zhjf1R_pYkTGrIfWavz-1" value="" style="group" parent="1" vertex="1" connectable="0">
          <mxGeometry x="1170" y="1670" width="595" height="445" as="geometry" />
        </mxCell>
        <mxCell id="2Zhjf1R_pYkTGrIfWavz-2" value="Organization&lt;br&gt;" style="shape=umlActor;verticalLabelPosition=bottom;verticalAlign=top;html=1;outlineConnect=0;" parent="2Zhjf1R_pYkTGrIfWavz-1" vertex="1">
          <mxGeometry y="182" width="30" height="70" as="geometry" />
        </mxCell>
        <mxCell id="2Zhjf1R_pYkTGrIfWavz-3" value="" style="whiteSpace=wrap;html=1;aspect=fixed;fillColor=#dae8fc;strokeColor=#6c8ebf;" parent="2Zhjf1R_pYkTGrIfWavz-1" vertex="1">
          <mxGeometry x="150" width="445" height="445" as="geometry" />
        </mxCell>
        <mxCell id="2Zhjf1R_pYkTGrIfWavz-4" value="upgrade subscription plan" style="ellipse;whiteSpace=wrap;html=1;fillColor=#fff2cc;strokeColor=#d6b656;" parent="2Zhjf1R_pYkTGrIfWavz-1" vertex="1">
          <mxGeometry x="315" y="80" width="150" height="80" as="geometry" />
        </mxCell>
        <mxCell id="2Zhjf1R_pYkTGrIfWavz-5" value="" style="endArrow=none;html=1;rounded=0;entryX=0.5;entryY=0.5;entryDx=0;entryDy=0;entryPerimeter=0;exitX=0;exitY=0.5;exitDx=0;exitDy=0;" parent="2Zhjf1R_pYkTGrIfWavz-1" source="2Zhjf1R_pYkTGrIfWavz-4" target="2Zhjf1R_pYkTGrIfWavz-2" edge="1">
          <mxGeometry width="50" height="50" relative="1" as="geometry">
            <mxPoint x="280" y="232" as="sourcePoint" />
            <mxPoint x="330" y="182" as="targetPoint" />
          </mxGeometry>
        </mxCell>
        <mxCell id="2Zhjf1R_pYkTGrIfWavz-8" value="monitor plan expiry" style="ellipse;whiteSpace=wrap;html=1;fillColor=#fff2cc;strokeColor=#d6b656;" parent="2Zhjf1R_pYkTGrIfWavz-1" vertex="1">
          <mxGeometry x="315" y="292" width="150" height="80" as="geometry" />
        </mxCell>
        <mxCell id="2Zhjf1R_pYkTGrIfWavz-9" value="" style="endArrow=none;html=1;rounded=0;entryX=0.5;entryY=0.5;entryDx=0;entryDy=0;entryPerimeter=0;exitX=0;exitY=0.5;exitDx=0;exitDy=0;" parent="2Zhjf1R_pYkTGrIfWavz-1" source="2Zhjf1R_pYkTGrIfWavz-8" target="2Zhjf1R_pYkTGrIfWavz-2" edge="1">
          <mxGeometry width="50" height="50" relative="1" as="geometry">
            <mxPoint x="275" y="322" as="sourcePoint" />
            <mxPoint x="10" y="307" as="targetPoint" />
          </mxGeometry>
        </mxCell>
      </root>
    </mxGraphModel>
  </diagram>
  <diagram id="0HlBuUOoLkABaDiHX5PU" name="Individual">
    <mxGraphModel dx="2250" dy="1048" grid="1" gridSize="10" guides="1" tooltips="1" connect="1" arrows="1" fold="1" page="1" pageScale="1" pageWidth="850" pageHeight="1100" math="0" shadow="0">
      <root>
        <mxCell id="0" />
        <mxCell id="1" parent="0" />
        <mxCell id="EYae9Q5js3Ke2HA41Hy2-1" value="" style="group" parent="1" vertex="1" connectable="0">
          <mxGeometry x="150" y="430" width="610" height="445" as="geometry" />
        </mxCell>
        <mxCell id="EYae9Q5js3Ke2HA41Hy2-2" value="Individual" style="shape=umlActor;verticalLabelPosition=bottom;verticalAlign=top;html=1;outlineConnect=0;" parent="EYae9Q5js3Ke2HA41Hy2-1" vertex="1">
          <mxGeometry y="150" width="30" height="70" as="geometry" />
        </mxCell>
        <mxCell id="EYae9Q5js3Ke2HA41Hy2-3" value="" style="whiteSpace=wrap;html=1;aspect=fixed;fillColor=#dae8fc;strokeColor=#6c8ebf;" parent="EYae9Q5js3Ke2HA41Hy2-1" vertex="1">
          <mxGeometry x="165" width="445" height="445" as="geometry" />
        </mxCell>
        <mxCell id="EYae9Q5js3Ke2HA41Hy2-4" value="Login" style="ellipse;whiteSpace=wrap;html=1;fillColor=#fff2cc;strokeColor=#d6b656;" parent="EYae9Q5js3Ke2HA41Hy2-1" vertex="1">
          <mxGeometry x="322.5" y="60" width="115" height="80" as="geometry" />
        </mxCell>
        <mxCell id="EYae9Q5js3Ke2HA41Hy2-5" value="Logout" style="ellipse;whiteSpace=wrap;html=1;fillColor=#fff2cc;strokeColor=#d6b656;" parent="EYae9Q5js3Ke2HA41Hy2-1" vertex="1">
          <mxGeometry x="322.5" y="230" width="115" height="80" as="geometry" />
        </mxCell>
        <mxCell id="EYae9Q5js3Ke2HA41Hy2-6" value="" style="endArrow=none;html=1;rounded=0;entryX=0.5;entryY=0.5;entryDx=0;entryDy=0;entryPerimeter=0;exitX=0;exitY=0.5;exitDx=0;exitDy=0;" parent="EYae9Q5js3Ke2HA41Hy2-1" source="EYae9Q5js3Ke2HA41Hy2-4" target="EYae9Q5js3Ke2HA41Hy2-2" edge="1">
          <mxGeometry width="50" height="50" relative="1" as="geometry">
            <mxPoint x="280" y="200" as="sourcePoint" />
            <mxPoint x="330" y="150" as="targetPoint" />
          </mxGeometry>
        </mxCell>
        <mxCell id="EYae9Q5js3Ke2HA41Hy2-7" value="" style="endArrow=none;html=1;rounded=0;entryX=0.5;entryY=0.5;entryDx=0;entryDy=0;entryPerimeter=0;exitX=0;exitY=0.5;exitDx=0;exitDy=0;" parent="EYae9Q5js3Ke2HA41Hy2-1" source="EYae9Q5js3Ke2HA41Hy2-5" target="EYae9Q5js3Ke2HA41Hy2-2" edge="1">
          <mxGeometry width="50" height="50" relative="1" as="geometry">
            <mxPoint x="332.5" y="110" as="sourcePoint" />
            <mxPoint x="25" y="195" as="targetPoint" />
          </mxGeometry>
        </mxCell>
        <mxCell id="EYae9Q5js3Ke2HA41Hy2-8" value="2FA secure login" style="ellipse;whiteSpace=wrap;html=1;fillColor=#fff2cc;strokeColor=#d6b656;container=0;" parent="EYae9Q5js3Ke2HA41Hy2-1" vertex="1">
          <mxGeometry x="330" y="145" width="115" height="80" as="geometry" />
        </mxCell>
        <mxCell id="EYae9Q5js3Ke2HA41Hy2-9" value="" style="endArrow=none;html=1;rounded=0;entryX=0.5;entryY=0.5;entryDx=0;entryDy=0;entryPerimeter=0;exitX=0;exitY=0.5;exitDx=0;exitDy=0;" parent="EYae9Q5js3Ke2HA41Hy2-1" source="EYae9Q5js3Ke2HA41Hy2-8" target="EYae9Q5js3Ke2HA41Hy2-2" edge="1">
          <mxGeometry width="50" height="50" relative="1" as="geometry">
            <mxPoint x="342.5" y="75" as="sourcePoint" />
            <mxPoint x="-90" y="127" as="targetPoint" />
          </mxGeometry>
        </mxCell>
        <mxCell id="GvGRpYsss6KB6wHE8S8--1" value="Individual" style="shape=umlActor;verticalLabelPosition=bottom;verticalAlign=top;html=1;outlineConnect=0;container=0;" vertex="1" parent="1">
          <mxGeometry x="150" y="1162" width="30" height="70" as="geometry" />
        </mxCell>
        <mxCell id="GvGRpYsss6KB6wHE8S8--2" value="" style="whiteSpace=wrap;html=1;aspect=fixed;fillColor=#dae8fc;strokeColor=#6c8ebf;container=0;" vertex="1" parent="1">
          <mxGeometry x="307.5" y="980" width="510" height="510" as="geometry" />
        </mxCell>
        <mxCell id="GvGRpYsss6KB6wHE8S8--3" value="create user account&amp;nbsp;" style="ellipse;whiteSpace=wrap;html=1;fillColor=#fff2cc;strokeColor=#d6b656;container=0;" vertex="1" parent="1">
          <mxGeometry x="503.75" y="1020" width="117.5" height="80" as="geometry" />
        </mxCell>
        <mxCell id="GvGRpYsss6KB6wHE8S8--4" value="edit interest categories" style="ellipse;whiteSpace=wrap;html=1;fillColor=#fff2cc;strokeColor=#d6b656;container=0;" vertex="1" parent="1">
          <mxGeometry x="503.75" y="1232" width="115" height="80" as="geometry" />
        </mxCell>
        <mxCell id="GvGRpYsss6KB6wHE8S8--5" value="" style="endArrow=none;html=1;rounded=0;entryX=0.5;entryY=0.5;entryDx=0;entryDy=0;entryPerimeter=0;exitX=0;exitY=0.5;exitDx=0;exitDy=0;" edge="1" parent="1" source="GvGRpYsss6KB6wHE8S8--3" target="GvGRpYsss6KB6wHE8S8--1">
          <mxGeometry width="50" height="50" relative="1" as="geometry">
            <mxPoint x="430" y="1212" as="sourcePoint" />
            <mxPoint x="480" y="1162" as="targetPoint" />
          </mxGeometry>
        </mxCell>
        <mxCell id="GvGRpYsss6KB6wHE8S8--6" value="" style="endArrow=none;html=1;rounded=0;entryX=0.5;entryY=0.5;entryDx=0;entryDy=0;entryPerimeter=0;exitX=0;exitY=0.5;exitDx=0;exitDy=0;" edge="1" parent="1" source="GvGRpYsss6KB6wHE8S8--4" target="GvGRpYsss6KB6wHE8S8--1">
          <mxGeometry width="50" height="50" relative="1" as="geometry">
            <mxPoint x="482.5" y="1122" as="sourcePoint" />
            <mxPoint x="175" y="1207" as="targetPoint" />
          </mxGeometry>
        </mxCell>
        <mxCell id="GvGRpYsss6KB6wHE8S8--7" value="Select interest categories" style="ellipse;whiteSpace=wrap;html=1;fillColor=#fff2cc;strokeColor=#d6b656;container=0;" vertex="1" parent="1">
          <mxGeometry x="506.25" y="1130" width="115" height="80" as="geometry" />
        </mxCell>
        <mxCell id="GvGRpYsss6KB6wHE8S8--8" value="" style="endArrow=none;html=1;rounded=0;exitX=0;exitY=0.5;exitDx=0;exitDy=0;" edge="1" parent="1" source="GvGRpYsss6KB6wHE8S8--7">
          <mxGeometry width="50" height="50" relative="1" as="geometry">
            <mxPoint x="483.75" y="1229.13" as="sourcePoint" />
            <mxPoint x="170" y="1200" as="targetPoint" />
          </mxGeometry>
        </mxCell>
        <mxCell id="GvGRpYsss6KB6wHE8S8--9" value="" style="group" vertex="1" connectable="0" parent="1">
          <mxGeometry x="275" y="1340" width="455" height="80" as="geometry" />
        </mxCell>
        <mxCell id="GvGRpYsss6KB6wHE8S8--10" value="edit account information&amp;nbsp;" style="ellipse;whiteSpace=wrap;html=1;fillColor=#fff2cc;strokeColor=#d6b656;container=0;" vertex="1" parent="GvGRpYsss6KB6wHE8S8--9">
          <mxGeometry x="240" y="-10" width="115" height="80" as="geometry" />
        </mxCell>
        <mxCell id="GvGRpYsss6KB6wHE8S8--11" value="" style="endArrow=none;html=1;rounded=0;exitX=0;exitY=0.5;exitDx=0;exitDy=0;" edge="1" parent="1" source="GvGRpYsss6KB6wHE8S8--10">
          <mxGeometry width="50" height="50" relative="1" as="geometry">
            <mxPoint x="595" y="1322" as="sourcePoint" />
            <mxPoint x="165" y="1197" as="targetPoint" />
          </mxGeometry>
        </mxCell>
        <mxCell id="xQz9wt7WYionFAJdrwkp-1" value="" style="group" vertex="1" connectable="0" parent="1">
          <mxGeometry x="1150" y="1312" width="595" height="445" as="geometry" />
        </mxCell>
        <mxCell id="xQz9wt7WYionFAJdrwkp-2" value="Individual" style="shape=umlActor;verticalLabelPosition=bottom;verticalAlign=top;html=1;outlineConnect=0;" vertex="1" parent="xQz9wt7WYionFAJdrwkp-1">
          <mxGeometry y="182" width="30" height="70" as="geometry" />
        </mxCell>
        <mxCell id="xQz9wt7WYionFAJdrwkp-3" value="" style="whiteSpace=wrap;html=1;aspect=fixed;fillColor=#dae8fc;strokeColor=#6c8ebf;" vertex="1" parent="xQz9wt7WYionFAJdrwkp-1">
          <mxGeometry x="150" width="445" height="445" as="geometry" />
        </mxCell>
        <mxCell id="xQz9wt7WYionFAJdrwkp-4" value="generate recommendation from RECS data" style="ellipse;whiteSpace=wrap;html=1;fillColor=#fff2cc;strokeColor=#d6b656;" vertex="1" parent="xQz9wt7WYionFAJdrwkp-1">
          <mxGeometry x="315" y="182.5" width="150" height="80" as="geometry" />
        </mxCell>
        <mxCell id="xQz9wt7WYionFAJdrwkp-5" value="" style="endArrow=none;html=1;rounded=0;entryX=0.5;entryY=0.5;entryDx=0;entryDy=0;entryPerimeter=0;exitX=0;exitY=0.5;exitDx=0;exitDy=0;" edge="1" parent="xQz9wt7WYionFAJdrwkp-1" source="xQz9wt7WYionFAJdrwkp-4" target="xQz9wt7WYionFAJdrwkp-2">
          <mxGeometry width="50" height="50" relative="1" as="geometry">
            <mxPoint x="280" y="232" as="sourcePoint" />
            <mxPoint x="330" y="182" as="targetPoint" />
          </mxGeometry>
        </mxCell>
        <mxCell id="xQz9wt7WYionFAJdrwkp-6" value="generate ratings prediction from RECS data" style="ellipse;whiteSpace=wrap;html=1;fillColor=#fff2cc;strokeColor=#d6b656;" vertex="1" parent="xQz9wt7WYionFAJdrwkp-1">
          <mxGeometry x="320" y="50" width="140" height="90" as="geometry" />
        </mxCell>
        <mxCell id="xQz9wt7WYionFAJdrwkp-7" value="" style="endArrow=none;html=1;rounded=0;entryX=0.5;entryY=0.5;entryDx=0;entryDy=0;entryPerimeter=0;exitX=0;exitY=0.5;exitDx=0;exitDy=0;" edge="1" parent="xQz9wt7WYionFAJdrwkp-1" source="xQz9wt7WYionFAJdrwkp-6" target="xQz9wt7WYionFAJdrwkp-2">
          <mxGeometry width="50" height="50" relative="1" as="geometry">
            <mxPoint x="333.75" y="332" as="sourcePoint" />
            <mxPoint x="25" y="227" as="targetPoint" />
          </mxGeometry>
        </mxCell>
        <mxCell id="H8C-4QXmFBielYuHbmHP-10" value="add list of ecommerce site URLs to crawl" style="ellipse;whiteSpace=wrap;html=1;fillColor=#fff2cc;strokeColor=#d6b656;" vertex="1" parent="xQz9wt7WYionFAJdrwkp-1">
          <mxGeometry x="310" y="300" width="140" height="80" as="geometry" />
        </mxCell>
        <mxCell id="H8C-4QXmFBielYuHbmHP-11" value="" style="endArrow=none;html=1;rounded=0;exitX=0;exitY=0.5;exitDx=0;exitDy=0;entryX=0.5;entryY=0.5;entryDx=0;entryDy=0;entryPerimeter=0;" edge="1" parent="xQz9wt7WYionFAJdrwkp-1" source="H8C-4QXmFBielYuHbmHP-10" target="xQz9wt7WYionFAJdrwkp-2">
          <mxGeometry width="50" height="50" relative="1" as="geometry">
            <mxPoint x="280" y="512" as="sourcePoint" />
            <mxPoint x="40" y="240" as="targetPoint" />
          </mxGeometry>
        </mxCell>
        <mxCell id="H8C-4QXmFBielYuHbmHP-1" value="" style="group" vertex="1" connectable="0" parent="1">
          <mxGeometry x="230" y="1620" width="595" height="445" as="geometry" />
        </mxCell>
        <mxCell id="H8C-4QXmFBielYuHbmHP-2" value="Individual" style="shape=umlActor;verticalLabelPosition=bottom;verticalAlign=top;html=1;outlineConnect=0;" vertex="1" parent="H8C-4QXmFBielYuHbmHP-1">
          <mxGeometry y="182" width="30" height="70" as="geometry" />
        </mxCell>
        <mxCell id="H8C-4QXmFBielYuHbmHP-3" value="" style="whiteSpace=wrap;html=1;aspect=fixed;fillColor=#dae8fc;strokeColor=#6c8ebf;" vertex="1" parent="H8C-4QXmFBielYuHbmHP-1">
          <mxGeometry x="150" width="445" height="445" as="geometry" />
        </mxCell>
        <mxCell id="H8C-4QXmFBielYuHbmHP-4" value="upgrade subscription plan" style="ellipse;whiteSpace=wrap;html=1;fillColor=#fff2cc;strokeColor=#d6b656;" vertex="1" parent="H8C-4QXmFBielYuHbmHP-1">
          <mxGeometry x="315" y="80" width="150" height="80" as="geometry" />
        </mxCell>
        <mxCell id="H8C-4QXmFBielYuHbmHP-5" value="" style="endArrow=none;html=1;rounded=0;entryX=0.5;entryY=0.5;entryDx=0;entryDy=0;entryPerimeter=0;exitX=0;exitY=0.5;exitDx=0;exitDy=0;" edge="1" parent="H8C-4QXmFBielYuHbmHP-1" source="H8C-4QXmFBielYuHbmHP-4" target="H8C-4QXmFBielYuHbmHP-2">
          <mxGeometry width="50" height="50" relative="1" as="geometry">
            <mxPoint x="280" y="232" as="sourcePoint" />
            <mxPoint x="330" y="182" as="targetPoint" />
          </mxGeometry>
        </mxCell>
        <mxCell id="H8C-4QXmFBielYuHbmHP-6" value="monitor plan expiry" style="ellipse;whiteSpace=wrap;html=1;fillColor=#fff2cc;strokeColor=#d6b656;" vertex="1" parent="H8C-4QXmFBielYuHbmHP-1">
          <mxGeometry x="315" y="292" width="150" height="80" as="geometry" />
        </mxCell>
        <mxCell id="H8C-4QXmFBielYuHbmHP-7" value="" style="endArrow=none;html=1;rounded=0;entryX=0.5;entryY=0.5;entryDx=0;entryDy=0;entryPerimeter=0;exitX=0;exitY=0.5;exitDx=0;exitDy=0;" edge="1" parent="H8C-4QXmFBielYuHbmHP-1" source="H8C-4QXmFBielYuHbmHP-6" target="H8C-4QXmFBielYuHbmHP-2">
          <mxGeometry width="50" height="50" relative="1" as="geometry">
            <mxPoint x="275" y="322" as="sourcePoint" />
            <mxPoint x="10" y="307" as="targetPoint" />
          </mxGeometry>
        </mxCell>
        <mxCell id="H8C-4QXmFBielYuHbmHP-13" value="" style="group" vertex="1" connectable="0" parent="1">
          <mxGeometry x="1110" y="520" width="602.5" height="445" as="geometry" />
        </mxCell>
        <mxCell id="H8C-4QXmFBielYuHbmHP-14" value="Individual" style="shape=umlActor;verticalLabelPosition=bottom;verticalAlign=top;html=1;outlineConnect=0;" vertex="1" parent="H8C-4QXmFBielYuHbmHP-13">
          <mxGeometry y="182" width="30" height="70" as="geometry" />
        </mxCell>
        <mxCell id="H8C-4QXmFBielYuHbmHP-15" value="" style="whiteSpace=wrap;html=1;aspect=fixed;fillColor=#dae8fc;strokeColor=#6c8ebf;" vertex="1" parent="H8C-4QXmFBielYuHbmHP-13">
          <mxGeometry x="157.5" width="445" height="445" as="geometry" />
        </mxCell>
        <mxCell id="H8C-4QXmFBielYuHbmHP-16" value="generate product recommedation based from crawl" style="ellipse;whiteSpace=wrap;html=1;fillColor=#fff2cc;strokeColor=#d6b656;" vertex="1" parent="H8C-4QXmFBielYuHbmHP-13">
          <mxGeometry x="320" y="240" width="140" height="80" as="geometry" />
        </mxCell>
        <mxCell id="H8C-4QXmFBielYuHbmHP-17" value="" style="endArrow=none;html=1;rounded=0;entryX=0.5;entryY=0.5;entryDx=0;entryDy=0;entryPerimeter=0;exitX=0;exitY=0.5;exitDx=0;exitDy=0;" edge="1" parent="H8C-4QXmFBielYuHbmHP-13" source="H8C-4QXmFBielYuHbmHP-16" target="H8C-4QXmFBielYuHbmHP-14">
          <mxGeometry width="50" height="50" relative="1" as="geometry">
            <mxPoint x="332.5" y="142" as="sourcePoint" />
            <mxPoint x="25" y="227" as="targetPoint" />
          </mxGeometry>
        </mxCell>
        <mxCell id="H8C-4QXmFBielYuHbmHP-18" value="Crawl URL links uploaded" style="ellipse;whiteSpace=wrap;html=1;fillColor=#fff2cc;strokeColor=#d6b656;" vertex="1" parent="H8C-4QXmFBielYuHbmHP-13">
          <mxGeometry x="340" y="30" width="115" height="80" as="geometry" />
        </mxCell>
        <mxCell id="H8C-4QXmFBielYuHbmHP-19" value="" style="endArrow=none;html=1;rounded=0;entryX=0.5;entryY=0.5;entryDx=0;entryDy=0;entryPerimeter=0;exitX=0;exitY=0.5;exitDx=0;exitDy=0;" edge="1" parent="H8C-4QXmFBielYuHbmHP-13" source="H8C-4QXmFBielYuHbmHP-18" target="H8C-4QXmFBielYuHbmHP-14">
          <mxGeometry width="50" height="50" relative="1" as="geometry">
            <mxPoint x="333.75" y="332" as="sourcePoint" />
            <mxPoint x="25" y="227" as="targetPoint" />
          </mxGeometry>
        </mxCell>
        <mxCell id="H8C-4QXmFBielYuHbmHP-20" value="" style="group" vertex="1" connectable="0" parent="H8C-4QXmFBielYuHbmHP-13">
          <mxGeometry y="140" width="470" height="80" as="geometry" />
        </mxCell>
        <mxCell id="H8C-4QXmFBielYuHbmHP-21" value="generate ratings prediction based from crawl" style="ellipse;whiteSpace=wrap;html=1;fillColor=#fff2cc;strokeColor=#d6b656;container=0;" vertex="1" parent="H8C-4QXmFBielYuHbmHP-20">
          <mxGeometry x="340" width="130" height="80" as="geometry" />
        </mxCell>
        <mxCell id="H8C-4QXmFBielYuHbmHP-22" value="" style="endArrow=none;html=1;rounded=0;exitX=0;exitY=0.5;exitDx=0;exitDy=0;entryX=0.5;entryY=0.5;entryDx=0;entryDy=0;entryPerimeter=0;" edge="1" parent="H8C-4QXmFBielYuHbmHP-13" source="H8C-4QXmFBielYuHbmHP-21" target="H8C-4QXmFBielYuHbmHP-14">
          <mxGeometry width="50" height="50" relative="1" as="geometry">
            <mxPoint x="385" y="182" as="sourcePoint" />
            <mxPoint x="50" y="250" as="targetPoint" />
          </mxGeometry>
        </mxCell>
        <mxCell id="H8C-4QXmFBielYuHbmHP-23" value="" style="endArrow=none;html=1;rounded=0;exitX=0;exitY=0.5;exitDx=0;exitDy=0;entryX=0.5;entryY=0.5;entryDx=0;entryDy=0;entryPerimeter=0;" edge="1" parent="H8C-4QXmFBielYuHbmHP-13" source="H8C-4QXmFBielYuHbmHP-24" target="H8C-4QXmFBielYuHbmHP-14">
          <mxGeometry width="50" height="50" relative="1" as="geometry">
            <mxPoint x="380" y="545" as="sourcePoint" />
            <mxPoint x="120" y="320" as="targetPoint" />
          </mxGeometry>
        </mxCell>
        <mxCell id="H8C-4QXmFBielYuHbmHP-24" value="view result history" style="ellipse;whiteSpace=wrap;html=1;fillColor=#fff2cc;strokeColor=#d6b656;" vertex="1" parent="H8C-4QXmFBielYuHbmHP-13">
          <mxGeometry x="310" y="350" width="150" height="80" as="geometry" />
        </mxCell>
      </root>
    </mxGraphModel>
  </diagram>
</mxfile>
